<svg xmlns="http://www.w3.org/2000/svg" width="1009.536" height="675.72" viewBox="0 0 1009.536 675.72"><path d="M688.44,180.84c-64.72-2.25-126.37-23.14-185.23-46S386.05,86.65,322.88,74.54c-40.63-7.79-87.1-8.89-119.83,12.89-31.51,21-41.69,57.15-47.16,90.73-4.12,25.26-6.54,51.84,4.75,75.49,7.83,16.42,21.74,30.22,31.35,46,33.47,54.72,9.82,122.2-26.45,175.63-17,25.07-36.75,49-49.87,75.66s-19.2,57.25-7.72,84.47c11.39,27,38.52,47.24,67.9,61.49,59.69,28.95,130,37.23,198.61,41.92,151.83,10.39,304.46,5.89,456.69,1.39,56.34-1.67,112.92-3.36,168.34-12.07,30.78-4.84,62.55-12.51,84.9-31.05,28.36-23.53,35.39-63.38,16.39-92.88-31.89-49.49-120-61.78-142.32-114.9-12.26-29.23.34-61.79,18.16-88.91,38.24-58.16,102.33-109.19,105.71-175.67,2.32-45.67-28.5-91.39-76.14-113C956.26,89,887,91.88,850.18,129.37,812.24,168,745.58,182.82,688.44,180.84Z" transform="translate(-101.886 -69.438)" fill="#3f3d56" opacity="0.15"/></svg>