<svg xmlns="http://www.w3.org/2000/svg" width="141" height="141" viewBox="0 0 141 141"><g transform="translate(-1885 2550)"><g transform="translate(1885 -2550)" fill="#d9d9d9"><path d="M 70.5 140.5 C 61.04983520507813 140.5 51.88261795043945 138.6492919921875 43.25299835205078 134.9992523193359 C 39.10530853271484 133.2449493408203 35.10483551025391 131.0735473632813 31.36268997192383 128.5453948974609 C 27.65596389770508 126.0411834716797 24.17028999328613 123.1652374267578 21.00252723693848 119.9974746704102 C 17.83476448059082 116.8297119140625 14.95881843566895 113.3440399169922 12.45460033416748 109.6373062133789 C 9.926454544067383 105.8951644897461 7.755054473876953 101.8946914672852 6.000745296478271 97.74700164794922 C 2.350709199905396 89.11737823486328 0.5 79.95016479492188 0.5 70.5 C 0.5 61.04983520507813 2.350709199905396 51.88261795043945 6.000745296478271 43.25299835205078 C 7.755054473876953 39.10530853271484 9.926454544067383 35.10483551025391 12.45460033416748 31.36268997192383 C 14.95881843566895 27.65596389770508 17.83476448059082 24.17028999328613 21.00252723693848 21.00252723693848 C 24.17028999328613 17.83476448059082 27.65596389770508 14.95881843566895 31.36268997192383 12.45460033416748 C 35.10483551025391 9.926454544067383 39.10530853271484 7.755054473876953 43.25299835205078 6.000745296478271 C 51.88261795043945 2.350709199905396 61.04983520507813 0.5 70.5 0.5 C 79.95016479492188 0.5 89.11737823486328 2.350709199905396 97.74700164794922 6.000745296478271 C 101.8946914672852 7.755054473876953 105.8951644897461 9.926454544067383 109.6373062133789 12.45460033416748 C 113.3440399169922 14.95881843566895 116.8297119140625 17.83476448059082 119.9974746704102 21.00252723693848 C 123.1652374267578 24.17028999328613 126.0411834716797 27.65596389770508 128.5453948974609 31.36268997192383 C 131.0735473632813 35.10483551025391 133.2449493408203 39.10530853271484 134.9992523193359 43.25299835205078 C 138.6492919921875 51.88261795043945 140.5 61.04983520507813 140.5 70.5 C 140.5 79.95016479492188 138.6492919921875 89.11737823486328 134.9992523193359 97.74700164794922 C 133.2449493408203 101.8946914672852 131.0735473632813 105.8951644897461 128.5453948974609 109.6373062133789 C 126.0411834716797 113.3440399169922 123.1652374267578 116.8297119140625 119.9974746704102 119.9974746704102 C 116.8297119140625 123.1652374267578 113.3440399169922 126.0411834716797 109.6373062133789 128.5453948974609 C 105.8951644897461 131.0735473632813 101.8946914672852 133.2449493408203 97.74700164794922 134.9992523193359 C 89.11737823486328 138.6492919921875 79.95016479492188 140.5 70.5 140.5 Z" stroke="none"/><path d="M 70.5 1 C 61.11712646484375 1 52.01543426513672 2.837432861328125 43.44776153564453 6.46124267578125 C 39.32981872558594 8.202987670898438 35.35797882080078 10.35884094238281 31.642578125 12.86891174316406 C 27.96221923828125 15.35532379150391 24.5013427734375 18.2108154296875 21.35607147216797 21.35607147216797 C 18.2108154296875 24.5013427734375 15.35532379150391 27.96221923828125 12.86891174316406 31.642578125 C 10.35884094238281 35.35797882080078 8.202987670898438 39.32981872558594 6.46124267578125 43.44776153564453 C 2.837432861328125 52.01543426513672 1 61.11712646484375 1 70.5 C 1 79.88287353515625 2.837432861328125 88.98455810546875 6.46124267578125 97.55221557617188 C 8.202987670898438 101.670166015625 10.35884094238281 105.6419982910156 12.86891174316406 109.3573989868164 C 15.35532379150391 113.0377655029297 18.2108154296875 116.4986572265625 21.35607147216797 119.6439056396484 C 24.5013427734375 122.7891845703125 27.96221923828125 125.6446685791016 31.642578125 128.1310729980469 C 35.35797882080078 130.6411590576172 39.32981872558594 132.7969970703125 43.44776153564453 134.5387420654297 C 52.01543426513672 138.1625671386719 61.11712646484375 140 70.5 140 C 79.88287353515625 140 88.98455810546875 138.1625671386719 97.55221557617188 134.5387420654297 C 101.670166015625 132.7969970703125 105.6419982910156 130.6411590576172 109.3573989868164 128.1310729980469 C 113.0377655029297 125.6446685791016 116.4986572265625 122.7891845703125 119.6439056396484 119.6439056396484 C 122.7891845703125 116.4986572265625 125.6446685791016 113.0377655029297 128.1310729980469 109.3573989868164 C 130.6411590576172 105.6419982910156 132.7969970703125 101.670166015625 134.5387420654297 97.55221557617188 C 138.1625671386719 88.98455810546875 140 79.88287353515625 140 70.5 C 140 61.11712646484375 138.1625671386719 52.01543426513672 134.5387420654297 43.44776153564453 C 132.7969970703125 39.32981872558594 130.6411590576172 35.35797882080078 128.1310729980469 31.642578125 C 125.6446685791016 27.96221923828125 122.7891845703125 24.5013427734375 119.6439056396484 21.35607147216797 C 116.4986572265625 18.2108154296875 113.0377655029297 15.35532379150391 109.3573989868164 12.86891174316406 C 105.6419982910156 10.35884094238281 101.670166015625 8.202987670898438 97.55221557617188 6.46124267578125 C 88.98455810546875 2.837432861328125 79.88287353515625 1 70.5 1 M 70.5 0 C 109.4360504150391 0 141 31.56392669677734 141 70.5 C 141 109.4360504150391 109.4360504150391 141 70.5 141 C 31.56392669677734 141 0 109.4360504150391 0 70.5 C 0 31.56392669677734 31.56392669677734 0 70.5 0 Z" stroke="none" fill="#d9d9d9"/></g><g transform="translate(1909.901 -2524.48)"><g transform="translate(4.641 0)"><g transform="translate(31.243 0) rotate(34)"><g transform="translate(0 0)"><path d="M25.713,50.4a.871.871,0,0,1-.43-.114L.444,36.242a.877.877,0,0,1-.331-1.193L19.677.445A.875.875,0,0,1,20.87.114L45.71,14.157a.876.876,0,0,1,.331,1.193l-19.564,34.6a.87.87,0,0,1-.528.413.879.879,0,0,1-.235.032Z" transform="translate(21.369 5.472)" fill="#e6e6e6"/><rect width="0.203" height="30.157" transform="matrix(0.492, -0.871, 0.871, 0.492, 40.253, 7.449)" fill="#fff"/><rect width="0.203" height="30.157" transform="matrix(0.492, -0.871, 0.871, 0.492, 38.456, 10.627)" fill="#fff"/><rect width="0.203" height="30.157" transform="matrix(0.492, -0.871, 0.871, 0.492, 36.66, 13.805)" fill="#fff"/><rect width="0.203" height="30.157" transform="matrix(0.492, -0.871, 0.871, 0.492, 34.863, 16.983)" fill="#fff"/><rect width="0.203" height="30.157" transform="matrix(0.492, -0.871, 0.871, 0.492, 33.066, 20.161)" fill="#fff"/><rect width="0.203" height="30.157" transform="matrix(0.492, -0.871, 0.871, 0.492, 31.27, 23.339)" fill="#fff"/><rect width="0.203" height="30.157" transform="matrix(0.492, -0.871, 0.871, 0.492, 29.473, 26.517)" fill="#fff"/><rect width="0.203" height="30.157" transform="matrix(0.492, -0.871, 0.871, 0.492, 27.676, 29.695)" fill="#fff"/><rect width="0.203" height="30.157" transform="matrix(0.492, -0.871, 0.871, 0.492, 25.879, 32.873)" fill="#fff"/><rect width="0.203" height="30.157" transform="matrix(0.492, -0.871, 0.871, 0.492, 24.083, 36.051)" fill="#fff"/><rect width="0.203" height="30.157" transform="matrix(0.492, -0.871, 0.871, 0.492, 22.286, 39.229)" fill="#fff"/><path d="M25.713,50.4a.871.871,0,0,1-.43-.114L.444,36.242a.877.877,0,0,1-.331-1.193L19.677.445A.875.875,0,0,1,20.87.114L45.71,14.157a.876.876,0,0,1,.331,1.193l-19.564,34.6a.87.87,0,0,1-.528.413A.88.88,0,0,1,25.713,50.4Z" transform="translate(19.058 0.209)" fill="#f2f2f2"/><rect width="0.203" height="30.157" transform="matrix(0.492, -0.871, 0.871, 0.492, 37.942, 2.186)" fill="#fff"/><rect width="0.203" height="30.157" transform="matrix(0.492, -0.871, 0.871, 0.492, 36.146, 5.364)" fill="#fff"/><rect width="0.203" height="30.157" transform="matrix(0.492, -0.871, 0.871, 0.492, 34.349, 8.542)" fill="#fff"/><rect width="0.203" height="30.157" transform="matrix(0.492, -0.871, 0.871, 0.492, 32.552, 11.72)" fill="#fff"/><rect width="0.203" height="30.157" transform="matrix(0.492, -0.871, 0.871, 0.492, 30.756, 14.898)" fill="#fff"/><rect width="0.203" height="30.157" transform="matrix(0.492, -0.871, 0.871, 0.492, 28.959, 18.076)" fill="#fff"/><rect width="0.203" height="30.157" transform="matrix(0.492, -0.871, 0.871, 0.492, 27.162, 21.254)" fill="#fff"/><rect width="0.203" height="30.157" transform="matrix(0.492, -0.871, 0.871, 0.492, 25.366, 24.432)" fill="#fff"/><rect width="0.203" height="30.157" transform="matrix(0.492, -0.871, 0.871, 0.492, 23.569, 27.61)" fill="#fff"/><rect width="0.203" height="30.157" transform="matrix(0.492, -0.871, 0.871, 0.492, 21.772, 30.788)" fill="#fff"/><rect width="0.203" height="30.157" transform="matrix(0.492, -0.871, 0.871, 0.492, 19.975, 33.965)" fill="#fff"/><path d="M39.7,0H0V55.2H39.7a.538.538,0,0,0,.538-.538V.538A.538.538,0,0,0,39.7,0ZM2.24,53.676a.986.986,0,1,1,.986-.986.986.986,0,0,1-.986.986Zm0-5.018a.986.986,0,1,1,.986-.986.986.986,0,0,1-.986.986Zm0-5.018a.986.986,0,1,1,.986-.986.986.986,0,0,1-.986.986Zm0-5.018a.986.986,0,1,1,.986-.986.986.986,0,0,1-.986.986Zm0-5.018a.986.986,0,1,1,.986-.986.986.986,0,0,1-.986.986Zm0-5.018a.986.986,0,1,1,.986-.986.986.986,0,0,1-.986.986Zm0-5.018a.986.986,0,1,1,.986-.986.986.986,0,0,1-.986.986Zm0-5.018a.986.986,0,1,1,.986-.986.986.986,0,0,1-.986.986Zm0-5.018a.986.986,0,1,1,.986-.986.986.986,0,0,1-.986.986Zm0-5.018a.986.986,0,1,1,.986-.986.986.986,0,0,1-.986.986Zm0-5.018a.986.986,0,1,1,.986-.986.986.986,0,0,1-.986.986Z" transform="translate(2.599 0)" fill="#3f3d56"/><path d="M2.6.9C2.333.9,0,.884,0,.448S2.333,0,2.6,0V.179A6.771,6.771,0,0,0,.19.448,6.771,6.771,0,0,0,2.6.717,6.805,6.805,0,0,0,5.006.449,2.992,2.992,0,0,0,3.888.23L3.9.052C5.2.164,5.2.37,5.2.448,5.2.884,2.865.9,2.6.9Z" transform="translate(0 2.151)" fill="#2f2e41"/><path d="M2.6.9C2.333.9,0,.884,0,.448S2.333,0,2.6,0V.179A6.771,6.771,0,0,0,.19.448,6.771,6.771,0,0,0,2.6.717,6.805,6.805,0,0,0,5.006.449,2.992,2.992,0,0,0,3.888.23L3.9.052C5.2.164,5.2.37,5.2.448,5.2.884,2.865.9,2.6.9Z" transform="translate(0 7.079)" fill="#2f2e41"/><path d="M2.6.9C2.333.9,0,.884,0,.448S2.333,0,2.6,0V.179A6.771,6.771,0,0,0,.19.448,6.771,6.771,0,0,0,2.6.717,6.805,6.805,0,0,0,5.006.449,2.992,2.992,0,0,0,3.888.23L3.9.052C5.2.164,5.2.37,5.2.448,5.2.884,2.865.9,2.6.9Z" transform="translate(0 12.097)" fill="#2f2e41"/><path d="M2.6.9C2.333.9,0,.884,0,.448S2.333,0,2.6,0V.179A6.771,6.771,0,0,0,.19.448,6.771,6.771,0,0,0,2.6.717,6.805,6.805,0,0,0,5.006.449,2.992,2.992,0,0,0,3.888.23L3.9.052C5.2.164,5.2.37,5.2.448,5.2.884,2.865.9,2.6.9Z" transform="translate(0 17.115)" fill="#2f2e41"/><path d="M2.6.9C2.333.9,0,.884,0,.448S2.333,0,2.6,0V.179A6.771,6.771,0,0,0,.19.448,6.771,6.771,0,0,0,2.6.717,6.805,6.805,0,0,0,5.006.449,2.991,2.991,0,0,0,3.888.23L3.9.052C5.2.164,5.2.37,5.2.448,5.2.884,2.865.9,2.6.9Z" transform="translate(0 22.134)" fill="#2f2e41"/><path d="M2.6.9C2.333.9,0,.884,0,.448S2.333,0,2.6,0V.179A6.771,6.771,0,0,0,.19.448,6.771,6.771,0,0,0,2.6.717,6.805,6.805,0,0,0,5.006.449,2.991,2.991,0,0,0,3.888.23L3.9.052C5.2.164,5.2.37,5.2.448,5.2.884,2.865.9,2.6.9Z" transform="translate(0 27.152)" fill="#2f2e41"/><path d="M2.6.9C2.333.9,0,.884,0,.448S2.333,0,2.6,0V.179A6.771,6.771,0,0,0,.19.448,6.771,6.771,0,0,0,2.6.717,6.805,6.805,0,0,0,5.006.449,2.991,2.991,0,0,0,3.888.23L3.9.052C5.2.164,5.2.37,5.2.448,5.2.884,2.865.9,2.6.9Z" transform="translate(0 32.17)" fill="#2f2e41"/><path d="M2.6.9C2.333.9,0,.884,0,.448S2.333,0,2.6,0V.179A6.771,6.771,0,0,0,.19.448,6.771,6.771,0,0,0,2.6.717,6.805,6.805,0,0,0,5.006.449,2.992,2.992,0,0,0,3.888.23L3.9.052C5.2.164,5.2.37,5.2.448,5.2.884,2.865.9,2.6.9Z" transform="translate(0 37.188)" fill="#2f2e41"/><path d="M2.6.9C2.333.9,0,.884,0,.448S2.333,0,2.6,0V.179A6.771,6.771,0,0,0,.19.448,6.771,6.771,0,0,0,2.6.717,6.805,6.805,0,0,0,5.006.449,2.992,2.992,0,0,0,3.888.23L3.9.052C5.2.164,5.2.37,5.2.448,5.2.884,2.865.9,2.6.9Z" transform="translate(0 42.206)" fill="#2f2e41"/><path d="M2.6.9C2.333.9,0,.884,0,.448S2.333,0,2.6,0V.179A6.771,6.771,0,0,0,.19.448,6.771,6.771,0,0,0,2.6.717,6.805,6.805,0,0,0,5.006.449,2.992,2.992,0,0,0,3.888.23L3.9.052C5.2.164,5.2.37,5.2.448,5.2.884,2.865.9,2.6.9Z" transform="translate(0 47.225)" fill="#2f2e41"/><path d="M2.6.9C2.333.9,0,.884,0,.448S2.333,0,2.6,0V.179A6.771,6.771,0,0,0,.19.448,6.771,6.771,0,0,0,2.6.717,6.805,6.805,0,0,0,5.006.449,2.992,2.992,0,0,0,3.888.23L3.9.052C5.2.164,5.2.37,5.2.448,5.2.884,2.865.9,2.6.9Z" transform="translate(0 52.243)" fill="#2f2e41"/></g></g><g transform="translate(1.9 75.077)"><line x2="75.462" fill="none" stroke="#707070" stroke-width="4"/></g><g transform="translate(56.212 54.077)"><ellipse cx="3.116" cy="3.031" rx="3.116" ry="3.031" transform="translate(6.441 0)" fill="#2f2e41"/><path d="M172.773,360.341l-.083-1.374L178.1,358l.122,2.028Z" transform="translate(-166.176 -337.849)" fill="#ffb8b8"/><path d="M1.674,0,4.329,0l0,1.718L0,1.725H0A1.7,1.7,0,0,1,1.674,0Z" transform="translate(6.764 18.442) rotate(86.655)" fill="#2f2e41"/><path d="M151.311,352.059l-.9,1.063-4.644-2.865,1.326-1.569Z" transform="translate(-142.362 -329.58)" fill="#ffb8b8"/><path d="M1.668,0,4.352.037l.023,1.7L0,1.677H0A1.64,1.64,0,0,1,1.668,0Z" transform="matrix(0.635, -0.773, 0.773, 0.635, 6.037, 25.34)" fill="#2f2e41"/><path d="M439.1,575.016l-.614,2.816a.44.44,0,0,0,.091.373.467.467,0,0,0,.354.169l6.036.095a.467.467,0,0,0,.359-.158.44.44,0,0,0,.1-.369l-.528-2.91a.458.458,0,0,0-.455-.371h-4.894A.459.459,0,0,0,439.1,575.016Z" transform="translate(-432.741 -557.482)" fill="#2f2e41"/><path d="M396.123,568.926s-5.887-3.593-7.041-1.684a2.341,2.341,0,0,0,.144,2.568,3.961,3.961,0,0,0,1.662,1.447l4.772,2.272,1.731-1.8-1.154-1.01Z" transform="translate(-388.759 -550.4)" fill="#2f2e41"/><path d="M466.175,577.212s7.618-2.133,6.117,1.909-7.156,2.47-7.156,2.47l-.577-1.684,1.962-1.347Z" transform="translate(-455.81 -559.248)" fill="#2f2e41"/><ellipse cx="2.835" cy="2.758" rx="2.835" ry="2.758" transform="translate(6.761 0.966)" fill="#ffb8b8"/><path d="M433.544,497.938a15.637,15.637,0,0,1-3.492-.448l-.034-.009-1.582-7.078a2.6,2.6,0,0,1,1.724-3.025,9.534,9.534,0,0,1,5.921-.115h0a2.626,2.626,0,0,1,1.8,3.117l-1.767,7.1-.025.012A6.244,6.244,0,0,1,433.544,497.938Z" transform="translate(-423.8 -479.528)" fill="#be6f72"/><path d="M454.225,565.016a1.145,1.145,0,0,1,.692-.678,1.189,1.189,0,0,1,.979.081l3.115-2.63.282,2.067-3,2.181a1.186,1.186,0,0,1-1.5.382A1.123,1.123,0,0,1,454.225,565.016Z" transform="translate(-446.605 -546.056)" fill="#ffb8b8"/><path d="M473.632,503.066a.539.539,0,0,1-.15-.021.508.508,0,0,1-.342-.316l-.376-1.036a.493.493,0,0,1,.15-.55l4.244-2.478-1.673-7.26.043-.01a2.131,2.131,0,0,1,2.434,1.438c.492,1.276,2.312,4.051,2.184,5.926a1.689,1.689,0,0,1-1.422,1.541l-4.777,2.662A.524.524,0,0,1,473.632,503.066Z" transform="translate(-463.042 -483.532)" fill="#be6f72"/><path d="M445.8,562.823a1.145,1.145,0,0,0-.692-.678,1.19,1.19,0,0,0-.979.081l-3.115-2.63-.282,2.067,3,2.181a1.186,1.186,0,0,0,1.5.382A1.123,1.123,0,0,0,445.8,562.823Z" transform="translate(-434.733 -544.109)" fill="#ffb8b8"/><path d="M408.99,503.065a.524.524,0,0,1-.314-.1l-5.123-2.438a1.689,1.689,0,0,1-1.422-1.541c-.128-1.875,2.038-4.874,2.53-6.15a2.131,2.131,0,0,1,2.434-1.438l.043.01-2.019,7.484,4.59,2.254a.493.493,0,0,1,.15.55l-.376,1.036a.508.508,0,0,1-.342.316A.538.538,0,0,1,408.99,503.065Z" transform="translate(-400.582 -483.532)" fill="#be6f72"/><path d="M429.64,549.733H419.367a.8.8,0,0,1-.808-.786v-5.5a.8.8,0,0,1,.808-.786H429.64a.8.8,0,0,1,.808.786v5.5A.8.8,0,0,1,429.64,549.733Z" transform="translate(-415.119 -529.074)" fill="#d5d6db"/><ellipse cx="0.693" cy="0.674" rx="0.693" ry="0.674" transform="translate(8.691 16.449)" fill="#fff"/><path d="M446.707,429.825a.928.928,0,0,1,.517-1.109,1.857,1.857,0,0,1,1.34-.03c.368.111.712.284,1.071.42a2.456,2.456,0,0,0,1.126.2,1.135,1.135,0,0,0,.92-.593,1.064,1.064,0,0,0-.2-1.09,2.177,2.177,0,0,0-.994-.621,3.31,3.31,0,0,0-2.6.123,2.133,2.133,0,0,0-1.153,2.17" transform="translate(-439.974 -426.213)" fill="#2f2e41"/></g></g><text transform="translate(0.099 87.48)" fill="#4a4848" font-size="13" font-family="AlegreyaSC-Regular, Alegreya SC" letter-spacing="0.009em"><tspan x="0" y="0">Daily Student</tspan></text></g></g></svg>