<svg xmlns="http://www.w3.org/2000/svg" xmlns:xlink="http://www.w3.org/1999/xlink" width="20.183" height="19.605" viewBox="0 0 20.183 19.605"><defs><clipPath id="a"><ellipse cx="10.092" cy="8.684" rx="10.092" ry="8.684" fill="#322a7d"/></clipPath></defs><ellipse cx="10.092" cy="8.684" rx="10.092" ry="8.684" transform="translate(0 2.237)" fill="#322a7d"/><ellipse cx="0.99" cy="0.873" rx="0.99" ry="0.873" transform="translate(13.417 5.257)" fill="#d98f67"/><ellipse cx="0.99" cy="0.873" rx="0.99" ry="0.873" transform="translate(4.839 5.257)" fill="#d98f67"/><path d="M19.358,29.989,17,27.495V25h4.716v2.495Z" transform="translate(-9.295 -16.269)" fill="#d98f67"/><path d="M21.489,10.211c0-3.16-8.489-2.079-8.489,0v2.91a4,4,0,0,0,4.245,3.742,4,4,0,0,0,4.245-3.742Z" transform="translate(-7.181 -6.469)" fill="#e59e76"/><path d="M16.716,4A4.477,4.477,0,0,0,12,8.573V9.53l.943.707V8.158L18.6,6.495l1.886,1.663v2.079l.943-.707V8.573c0-1.663-.472-3.326-2.83-3.742L18.131,4H16.716Z" transform="translate(-6.653 -4)" fill="#000001"/><g transform="translate(0 2.236)" clip-path="url(#a)"><path d="M15.9,31h0a6.365,6.365,0,0,1-2.358.416A6.365,6.365,0,0,1,11.188,31S6,31.832,6,36.4l8.121,7.808L21.092,36.4C21.092,31.832,15.9,31,15.9,31Z" transform="translate(-3.483 -22.011)" fill="#ffa101"/></g></svg>